<svg xmlns="http://www.w3.org/2000/svg" xmlns:xlink="http://www.w3.org/1999/xlink" viewBox="0 0 1920 1080">
  <defs>
    <style>
      .cls-1 {
        clip-path: url(#clip-Web_1920_1);
      }

      .cls-2 {
        fill: rgba(80,241,62,0.26);
      }

      .cls-3 {
        fill: #fff;
      }
    </style>
    <clipPath id="clip-Web_1920_1">
      <rect width="1920" height="1080"/>
    </clipPath>
  </defs>
  <g id="Web_1920_1" data-name="Web 1920 – 1" class="cls-1">
    <rect class="cls-3" width="1920" height="1080"/>
    <path id="Subtraction_1" data-name="Subtraction 1" class="cls-2" d="M651,1080H0V0H651c12.746.011,25.628.472,38.289,1.369,12.529.888,25.169,2.226,37.569,3.978A537.358,537.358,0,0,1,932.121,79H709.5a7.5,7.5,0,0,0,0,15H955.316c13.238,9.048,26.232,18.805,38.621,29H1068.5a7.5,7.5,0,1,1,0,15h-57.105c10.313,9.248,20.389,19.006,29.948,29H1134a19,19,0,1,1,0,38h-59.55c9.1,11.484,17.836,23.474,25.958,35.635,8.161,12.218,15.911,24.919,23.037,37.75,7.166,12.9,13.877,26.26,19.949,39.7,6.115,13.537,11.732,27.494,16.694,41.482,5.006,14.11,9.472,28.611,13.274,43.1,3.84,14.631,7.1,29.619,9.688,44.549,2.617,15.1,4.614,30.519,5.934,45.834,1.337,15.506,2.015,31.3,2.015,46.952a537.242,537.242,0,0,1-100,313h19a19,19,0,1,1,0,38h-48.739c-10.983,12.816-22.7,25.265-34.834,37H1183.5a7.5,7.5,0,0,1,0,15H1010.276a544.918,544.918,0,0,1-52.054,41H834a11,11,0,1,0,0,22h89.769a537.319,537.319,0,0,1-199.426,69A547.861,547.861,0,0,1,651,1080Z" transform="translate(-116)"/>
  </g>
</svg>
